<svg width="16" height="16" viewBox="0 0 16 16" fill="none" xmlns="http://www.w3.org/2000/svg">
<path d="M15.1172 0H0.882805C0.395245 0 0 0.395245 0 0.882805V15.1172C0 15.6048 0.395245 16 0.882805 16H15.1172C15.6048 16 16 15.6048 16 15.1172V0.882805C16 0.395245 15.6048 0 15.1172 0Z" fill="#3D5A98"/>
<path d="M11.0385 15.999V9.80314H13.1178L13.4287 7.38861H11.0385V5.84742C11.0385 5.14848 11.2332 4.67125 12.235 4.67125H13.5139V2.50817C12.8946 2.44375 12.2723 2.41306 11.6496 2.41624C9.8083 2.41624 8.54019 3.53834 8.54019 5.60813V7.38861H6.46094V9.80314H8.54019V15.999H11.0385Z" fill="white"/>
</svg>
