<svg width="16" height="16" viewBox="0 0 16 16" fill="none" xmlns="http://www.w3.org/2000/svg">
<path d="M14.8197 6.05903e-05H1.18033C0.870861 -0.00308889 0.572783 0.116657 0.3515 0.333022C0.130218 0.549387 0.00380476 0.844699 0 1.15416V14.8486C0.00449283 15.1576 0.131208 15.4522 0.352416 15.668C0.573623 15.8838 0.871309 16.0032 1.18033 16.0001H14.8197C15.1292 16.0025 15.427 15.8824 15.6482 15.6659C15.8694 15.4494 15.9958 15.1541 16 14.8447V1.15022C15.9945 0.841672 15.8674 0.547768 15.6464 0.332396C15.4254 0.117024 15.1283 -0.00240782 14.8197 6.05903e-05Z" fill="#0076B2"/>
<path d="M2.36854 5.99737H4.74362V13.6393H2.36854V5.99737ZM3.55674 2.19409C3.82915 2.19409 4.09544 2.27489 4.32192 2.42626C4.5484 2.57763 4.7249 2.79277 4.82909 3.04447C4.93328 3.29617 4.96047 3.57312 4.90723 3.84027C4.85399 4.10743 4.72271 4.35279 4.52999 4.54533C4.33728 4.73786 4.09179 4.86891 3.82458 4.92189C3.55737 4.97488 3.28045 4.94742 3.02885 4.84299C2.77725 4.73856 2.56228 4.56186 2.41112 4.33523C2.25997 4.10861 2.17943 3.84224 2.17969 3.56983C2.18004 3.20484 2.32527 2.85492 2.58348 2.59696C2.84169 2.33899 3.19175 2.19409 3.55674 2.19409ZM6.23346 5.99737H8.51018V7.04655H8.54166C8.85903 6.4459 9.6328 5.81245 10.7882 5.81245C13.1935 5.80721 13.6394 7.39016 13.6394 9.44262V13.6393H11.2643V9.92131C11.2643 9.03606 11.2485 7.89639 10.0302 7.89639C8.81182 7.89639 8.60461 8.86163 8.60461 9.8636V13.6393H6.23346V5.99737Z" fill="white"/>
</svg>
