<svg width="279" height="102" viewBox="0 0 279 102" fill="none" xmlns="http://www.w3.org/2000/svg">
<rect x="0.332031" width="278.667" height="102" rx="8" fill="white"/>
<path d="M48.0633 49.7296C45.0806 47.5516 40.6106 43.7431 27.7946 43.7431V71.0134C40.6106 71.0134 45.0806 74.822 48.0633 77M48.0633 49.7296V77M48.0633 49.7296C51.046 47.5516 55.516 43.7431 68.332 43.7431V71.0134C55.516 71.0134 51.046 74.822 48.0633 77M55.9826 26.2127V35.7912M63.0685 26H36.4436C35.6997 25.9991 34.9704 26.2037 34.3382 26.5908L27.332 30.8995L34.3382 35.2004C34.9704 35.5874 35.6997 35.7921 36.4436 35.7912H63.0685C63.7309 35.8097 64.3904 35.6969 65.008 35.4593C65.6255 35.2217 66.1885 34.8643 66.6638 34.408C67.139 33.9518 67.5167 33.406 67.7747 32.803C68.0327 32.2001 68.1656 31.5521 68.1656 30.8976C68.1656 30.243 68.0327 29.595 67.7747 28.9921C67.5167 28.3891 67.139 27.8434 66.6638 27.3871C66.1885 26.9309 65.6255 26.5734 65.008 26.3358C64.3904 26.0982 63.7309 25.9814 63.0685 26Z" stroke="#EC2027" stroke-width="5" stroke-linecap="round" stroke-linejoin="round"/>
<path d="M102.559 29.125V40.5H100.402L95.5664 32.6094V40.5H93.418V29.125H95.5664L100.418 37.0234V29.125H102.559ZM104.223 36.3594V36.1953C104.223 35.5755 104.311 35.0052 104.488 34.4844C104.665 33.9583 104.923 33.5026 105.262 33.1172C105.6 32.7318 106.014 32.4323 106.504 32.2188C106.993 32 107.551 31.8906 108.176 31.8906C108.811 31.8906 109.374 32 109.863 32.2188C110.358 32.4323 110.775 32.7318 111.113 33.1172C111.452 33.5026 111.71 33.9583 111.887 34.4844C112.064 35.0052 112.152 35.5755 112.152 36.1953V36.3594C112.152 36.974 112.064 37.5443 111.887 38.0703C111.71 38.5911 111.452 39.0469 111.113 39.4375C110.775 39.8229 110.361 40.1224 109.871 40.3359C109.382 40.5495 108.822 40.6562 108.191 40.6562C107.566 40.6562 107.007 40.5495 106.512 40.3359C106.017 40.1224 105.6 39.8229 105.262 39.4375C104.923 39.0469 104.665 38.5911 104.488 38.0703C104.311 37.5443 104.223 36.974 104.223 36.3594ZM106.285 36.1953V36.3594C106.285 36.7292 106.322 37.0755 106.395 37.3984C106.467 37.7214 106.579 38.0052 106.73 38.25C106.882 38.4948 107.077 38.6875 107.316 38.8281C107.561 38.9635 107.853 39.0312 108.191 39.0312C108.525 39.0312 108.811 38.9635 109.051 38.8281C109.29 38.6875 109.486 38.4948 109.637 38.25C109.793 38.0052 109.908 37.7214 109.98 37.3984C110.053 37.0755 110.09 36.7292 110.09 36.3594V36.1953C110.09 35.8307 110.053 35.4896 109.98 35.1719C109.908 34.849 109.793 34.5651 109.637 34.3203C109.486 34.0703 109.288 33.875 109.043 33.7344C108.803 33.5885 108.514 33.5156 108.176 33.5156C107.842 33.5156 107.556 33.5885 107.316 33.7344C107.077 33.875 106.882 34.0703 106.73 34.3203C106.579 34.5651 106.467 34.849 106.395 35.1719C106.322 35.4896 106.285 35.8307 106.285 36.1953ZM115.715 33.7734V40.5H113.652V32.0469H115.605L115.715 33.7734ZM118.285 31.9922L118.254 33.9141C118.139 33.8932 118.009 33.8776 117.863 33.8672C117.723 33.8568 117.59 33.8516 117.465 33.8516C117.147 33.8516 116.868 33.8958 116.629 33.9844C116.389 34.0677 116.189 34.1901 116.027 34.3516C115.871 34.513 115.751 34.7109 115.668 34.9453C115.585 35.1745 115.538 35.4349 115.527 35.7266L115.082 35.6719C115.082 35.1354 115.137 34.638 115.246 34.1797C115.355 33.7214 115.514 33.3203 115.723 32.9766C115.931 32.6328 116.191 32.3672 116.504 32.1797C116.822 31.987 117.186 31.8906 117.598 31.8906C117.712 31.8906 117.835 31.901 117.965 31.9219C118.1 31.9375 118.207 31.9609 118.285 31.9922ZM123.809 32.0469V33.5312H118.965V32.0469H123.809ZM120.262 29.9688H122.332V38.0625C122.332 38.3125 122.366 38.5052 122.434 38.6406C122.501 38.776 122.603 38.8672 122.738 38.9141C122.874 38.9609 123.035 38.9844 123.223 38.9844C123.358 38.9844 123.483 38.9766 123.598 38.9609C123.712 38.9453 123.809 38.9297 123.887 38.9141L123.895 40.4609C123.723 40.5182 123.527 40.5651 123.309 40.6016C123.095 40.638 122.853 40.6562 122.582 40.6562C122.118 40.6562 121.712 40.5781 121.363 40.4219C121.014 40.2604 120.743 40.0026 120.551 39.6484C120.358 39.2891 120.262 38.8151 120.262 38.2266V29.9688ZM127.207 28.5V40.5H125.137V28.5H127.207ZM126.879 35.9688H126.27C126.27 35.3802 126.348 34.8385 126.504 34.3438C126.66 33.849 126.882 33.4193 127.168 33.0547C127.454 32.6849 127.796 32.3984 128.191 32.1953C128.592 31.9922 129.035 31.8906 129.52 31.8906C129.936 31.8906 130.314 31.9505 130.652 32.0703C130.996 32.1849 131.29 32.3698 131.535 32.625C131.78 32.8802 131.967 33.2135 132.098 33.625C132.233 34.0312 132.301 34.526 132.301 35.1094V40.5H130.223V35.0938C130.223 34.7031 130.165 34.3958 130.051 34.1719C129.936 33.9427 129.772 33.7786 129.559 33.6797C129.35 33.5807 129.092 33.5312 128.785 33.5312C128.452 33.5312 128.165 33.5964 127.926 33.7266C127.686 33.8516 127.488 34.026 127.332 34.25C127.181 34.474 127.066 34.7318 126.988 35.0234C126.915 35.3151 126.879 35.6302 126.879 35.9688ZM138.77 38.1875C138.77 38.0104 138.723 37.8516 138.629 37.7109C138.535 37.5703 138.358 37.4427 138.098 37.3281C137.842 37.2083 137.467 37.0964 136.973 36.9922C136.535 36.8984 136.132 36.7812 135.762 36.6406C135.392 36.5 135.074 36.3307 134.809 36.1328C134.543 35.9297 134.335 35.6927 134.184 35.4219C134.038 35.1458 133.965 34.8281 133.965 34.4688C133.965 34.1198 134.04 33.7917 134.191 33.4844C134.342 33.1719 134.561 32.8984 134.848 32.6641C135.134 32.4245 135.483 32.237 135.895 32.1016C136.306 31.9609 136.77 31.8906 137.285 31.8906C138.004 31.8906 138.621 32.0078 139.137 32.2422C139.658 32.4766 140.056 32.7995 140.332 33.2109C140.608 33.6172 140.746 34.0755 140.746 34.5859H138.684C138.684 34.362 138.632 34.1589 138.527 33.9766C138.428 33.7943 138.275 33.6484 138.066 33.5391C137.858 33.4245 137.595 33.3672 137.277 33.3672C136.991 33.3672 136.749 33.4141 136.551 33.5078C136.358 33.6016 136.212 33.724 136.113 33.875C136.014 34.026 135.965 34.1927 135.965 34.375C135.965 34.5104 135.991 34.6328 136.043 34.7422C136.1 34.8464 136.191 34.9427 136.316 35.0312C136.441 35.1198 136.611 35.2005 136.824 35.2734C137.043 35.3464 137.311 35.4167 137.629 35.4844C138.259 35.6094 138.809 35.776 139.277 35.9844C139.751 36.1875 140.121 36.4583 140.387 36.7969C140.652 37.1354 140.785 37.5677 140.785 38.0938C140.785 38.4688 140.704 38.8125 140.543 39.125C140.382 39.4323 140.147 39.7005 139.84 39.9297C139.533 40.1589 139.165 40.3385 138.738 40.4688C138.311 40.5938 137.829 40.6562 137.293 40.6562C136.517 40.6562 135.861 40.5182 135.324 40.2422C134.788 39.9609 134.382 39.6068 134.105 39.1797C133.829 38.7474 133.691 38.2995 133.691 37.8359H135.668C135.684 38.1641 135.772 38.4271 135.934 38.625C136.095 38.8229 136.298 38.9661 136.543 39.0547C136.793 39.138 137.056 39.1797 137.332 39.1797C137.645 39.1797 137.908 39.138 138.121 39.0547C138.335 38.9661 138.496 38.849 138.605 38.7031C138.715 38.5521 138.77 38.3802 138.77 38.1875ZM146.355 32.0469V33.5312H141.512V32.0469H146.355ZM142.809 29.9688H144.879V38.0625C144.879 38.3125 144.913 38.5052 144.98 38.6406C145.048 38.776 145.15 38.8672 145.285 38.9141C145.421 38.9609 145.582 38.9844 145.77 38.9844C145.905 38.9844 146.03 38.9766 146.145 38.9609C146.259 38.9453 146.355 38.9297 146.434 38.9141L146.441 40.4609C146.27 40.5182 146.074 40.5651 145.855 40.6016C145.642 40.638 145.4 40.6562 145.129 40.6562C144.665 40.6562 144.259 40.5781 143.91 40.4219C143.561 40.2604 143.29 40.0026 143.098 39.6484C142.905 39.2891 142.809 38.8151 142.809 38.2266V29.9688ZM152.387 38.7031V34.8047C152.387 34.5182 152.337 34.2708 152.238 34.0625C152.139 33.8542 151.988 33.6927 151.785 33.5781C151.582 33.4635 151.324 33.4062 151.012 33.4062C150.736 33.4062 150.493 33.4531 150.285 33.5469C150.082 33.6406 149.926 33.7734 149.816 33.9453C149.707 34.112 149.652 34.3047 149.652 34.5234H147.582C147.582 34.1745 147.665 33.8438 147.832 33.5312C147.999 33.2135 148.236 32.9323 148.543 32.6875C148.855 32.4375 149.228 32.2422 149.66 32.1016C150.098 31.9609 150.587 31.8906 151.129 31.8906C151.77 31.8906 152.34 32 152.84 32.2188C153.345 32.4323 153.741 32.7552 154.027 33.1875C154.319 33.6198 154.465 34.1641 154.465 34.8203V38.5078C154.465 38.9297 154.491 39.2917 154.543 39.5938C154.6 39.8906 154.684 40.1484 154.793 40.3672V40.5H152.691C152.592 40.2865 152.517 40.0156 152.465 39.6875C152.413 39.3542 152.387 39.026 152.387 38.7031ZM152.676 35.3516L152.691 36.5781H151.387C151.064 36.5781 150.78 36.612 150.535 36.6797C150.29 36.7422 150.09 36.8359 149.934 36.9609C149.777 37.0807 149.66 37.2266 149.582 37.3984C149.504 37.5651 149.465 37.7552 149.465 37.9688C149.465 38.1771 149.512 38.3646 149.605 38.5312C149.704 38.6979 149.845 38.8307 150.027 38.9297C150.215 39.0234 150.434 39.0703 150.684 39.0703C151.048 39.0703 151.366 38.9974 151.637 38.8516C151.908 38.7005 152.118 38.5182 152.27 38.3047C152.421 38.0911 152.501 37.888 152.512 37.6953L153.105 38.5859C153.033 38.7995 152.923 39.026 152.777 39.2656C152.632 39.5052 152.444 39.7292 152.215 39.9375C151.986 40.1458 151.71 40.3177 151.387 40.4531C151.064 40.5885 150.689 40.6562 150.262 40.6562C149.715 40.6562 149.225 40.5469 148.793 40.3281C148.361 40.1094 148.02 39.8099 147.77 39.4297C147.52 39.0495 147.395 38.6172 147.395 38.1328C147.395 37.6849 147.478 37.2891 147.645 36.9453C147.811 36.6016 148.059 36.3125 148.387 36.0781C148.715 35.8385 149.121 35.6589 149.605 35.5391C150.095 35.4141 150.655 35.3516 151.285 35.3516H152.676ZM158.387 33.7734V40.5H156.324V32.0469H158.277L158.387 33.7734ZM160.957 31.9922L160.926 33.9141C160.811 33.8932 160.681 33.8776 160.535 33.8672C160.395 33.8568 160.262 33.8516 160.137 33.8516C159.819 33.8516 159.54 33.8958 159.301 33.9844C159.061 34.0677 158.861 34.1901 158.699 34.3516C158.543 34.513 158.423 34.7109 158.34 34.9453C158.257 35.1745 158.21 35.4349 158.199 35.7266L157.754 35.6719C157.754 35.1354 157.809 34.638 157.918 34.1797C158.027 33.7214 158.186 33.3203 158.395 32.9766C158.603 32.6328 158.863 32.3672 159.176 32.1797C159.493 31.987 159.858 31.8906 160.27 31.8906C160.384 31.8906 160.507 31.901 160.637 31.9219C160.772 31.9375 160.879 31.9609 160.957 31.9922ZM170.754 30.8516L167.512 40.5H165.238L169.488 29.125H170.941L170.754 30.8516ZM173.465 40.5L170.207 30.8516L170.012 29.125H171.473L175.746 40.5H173.465ZM173.316 36.2734V37.9688H167.215V36.2734H173.316ZM180.23 39.0312C180.522 39.0312 180.783 38.974 181.012 38.8594C181.241 38.7448 181.423 38.5833 181.559 38.375C181.699 38.1667 181.775 37.9245 181.785 37.6484H183.73C183.72 38.2214 183.559 38.7344 183.246 39.1875C182.934 39.6406 182.517 40 181.996 40.2656C181.48 40.526 180.902 40.6562 180.262 40.6562C179.611 40.6562 179.043 40.5469 178.559 40.3281C178.074 40.1094 177.671 39.8047 177.348 39.4141C177.03 39.0234 176.79 38.5703 176.629 38.0547C176.473 37.5391 176.395 36.987 176.395 36.3984V36.1484C176.395 35.5599 176.473 35.0078 176.629 34.4922C176.79 33.9766 177.03 33.5234 177.348 33.1328C177.671 32.7422 178.074 32.4375 178.559 32.2188C179.043 32 179.608 31.8906 180.254 31.8906C180.936 31.8906 181.535 32.0234 182.051 32.2891C182.572 32.5547 182.978 32.9297 183.27 33.4141C183.566 33.8984 183.72 34.4688 183.73 35.125H181.785C181.775 34.8229 181.707 34.5521 181.582 34.3125C181.457 34.0729 181.28 33.8802 181.051 33.7344C180.822 33.5885 180.543 33.5156 180.215 33.5156C179.866 33.5156 179.574 33.5885 179.34 33.7344C179.111 33.8802 178.931 34.0807 178.801 34.3359C178.676 34.5859 178.587 34.8672 178.535 35.1797C178.488 35.487 178.465 35.8099 178.465 36.1484V36.3984C178.465 36.7422 178.488 37.0703 178.535 37.3828C178.587 37.6953 178.676 37.9766 178.801 38.2266C178.931 38.4714 179.111 38.6667 179.34 38.8125C179.574 38.9583 179.871 39.0312 180.23 39.0312ZM189.762 38.7031V34.8047C189.762 34.5182 189.712 34.2708 189.613 34.0625C189.514 33.8542 189.363 33.6927 189.16 33.5781C188.957 33.4635 188.699 33.4062 188.387 33.4062C188.111 33.4062 187.868 33.4531 187.66 33.5469C187.457 33.6406 187.301 33.7734 187.191 33.9453C187.082 34.112 187.027 34.3047 187.027 34.5234H184.957C184.957 34.1745 185.04 33.8438 185.207 33.5312C185.374 33.2135 185.611 32.9323 185.918 32.6875C186.23 32.4375 186.603 32.2422 187.035 32.1016C187.473 31.9609 187.962 31.8906 188.504 31.8906C189.145 31.8906 189.715 32 190.215 32.2188C190.72 32.4323 191.116 32.7552 191.402 33.1875C191.694 33.6198 191.84 34.1641 191.84 34.8203V38.5078C191.84 38.9297 191.866 39.2917 191.918 39.5938C191.975 39.8906 192.059 40.1484 192.168 40.3672V40.5H190.066C189.967 40.2865 189.892 40.0156 189.84 39.6875C189.788 39.3542 189.762 39.026 189.762 38.7031ZM190.051 35.3516L190.066 36.5781H188.762C188.439 36.5781 188.155 36.612 187.91 36.6797C187.665 36.7422 187.465 36.8359 187.309 36.9609C187.152 37.0807 187.035 37.2266 186.957 37.3984C186.879 37.5651 186.84 37.7552 186.84 37.9688C186.84 38.1771 186.887 38.3646 186.98 38.5312C187.079 38.6979 187.22 38.8307 187.402 38.9297C187.59 39.0234 187.809 39.0703 188.059 39.0703C188.423 39.0703 188.741 38.9974 189.012 38.8516C189.283 38.7005 189.493 38.5182 189.645 38.3047C189.796 38.0911 189.876 37.888 189.887 37.6953L190.48 38.5859C190.408 38.7995 190.298 39.026 190.152 39.2656C190.007 39.5052 189.819 39.7292 189.59 39.9375C189.361 40.1458 189.085 40.3177 188.762 40.4531C188.439 40.5885 188.064 40.6562 187.637 40.6562C187.09 40.6562 186.6 40.5469 186.168 40.3281C185.736 40.1094 185.395 39.8099 185.145 39.4297C184.895 39.0495 184.77 38.6172 184.77 38.1328C184.77 37.6849 184.853 37.2891 185.02 36.9453C185.186 36.6016 185.434 36.3125 185.762 36.0781C186.09 35.8385 186.496 35.6589 186.98 35.5391C187.47 35.4141 188.03 35.3516 188.66 35.3516H190.051ZM198.77 38.7031V28.5H200.848V40.5H198.973L198.77 38.7031ZM193.34 36.375V36.2109C193.34 35.5651 193.413 34.9792 193.559 34.4531C193.71 33.9219 193.928 33.4661 194.215 33.0859C194.501 32.7057 194.848 32.4115 195.254 32.2031C195.665 31.9948 196.132 31.8906 196.652 31.8906C197.158 31.8906 197.598 31.9922 197.973 32.1953C198.353 32.3984 198.676 32.6875 198.941 33.0625C199.212 33.4375 199.428 33.8828 199.59 34.3984C199.751 34.9089 199.868 35.4714 199.941 36.0859V36.5312C199.868 37.1302 199.751 37.6797 199.59 38.1797C199.428 38.6797 199.212 39.1172 198.941 39.4922C198.676 39.862 198.353 40.1484 197.973 40.3516C197.592 40.5547 197.147 40.6562 196.637 40.6562C196.121 40.6562 195.658 40.5495 195.246 40.3359C194.84 40.1224 194.493 39.8229 194.207 39.4375C193.926 39.0521 193.71 38.599 193.559 38.0781C193.413 37.5573 193.34 36.9896 193.34 36.375ZM195.41 36.2109V36.375C195.41 36.7396 195.441 37.0807 195.504 37.3984C195.566 37.7161 195.668 37.9974 195.809 38.2422C195.949 38.4818 196.129 38.6693 196.348 38.8047C196.572 38.9401 196.842 39.0078 197.16 39.0078C197.566 39.0078 197.9 38.9193 198.16 38.7422C198.426 38.5599 198.632 38.3125 198.777 38C198.923 37.6823 199.017 37.3255 199.059 36.9297V35.7031C199.038 35.3906 198.983 35.1016 198.895 34.8359C198.811 34.5703 198.691 34.3411 198.535 34.1484C198.384 33.9557 198.197 33.8047 197.973 33.6953C197.749 33.5859 197.483 33.5312 197.176 33.5312C196.858 33.5312 196.587 33.6016 196.363 33.7422C196.139 33.8776 195.957 34.0677 195.816 34.3125C195.676 34.5573 195.572 34.8411 195.504 35.1641C195.441 35.487 195.41 35.8359 195.41 36.2109ZM206.512 40.6562C205.871 40.6562 205.296 40.5521 204.785 40.3438C204.275 40.1354 203.84 39.8464 203.48 39.4766C203.126 39.1016 202.853 38.6667 202.66 38.1719C202.473 37.6719 202.379 37.1354 202.379 36.5625V36.25C202.379 35.599 202.473 35.0078 202.66 34.4766C202.848 33.9401 203.113 33.4792 203.457 33.0938C203.801 32.7083 204.212 32.4115 204.691 32.2031C205.171 31.9948 205.699 31.8906 206.277 31.8906C206.876 31.8906 207.405 31.9922 207.863 32.1953C208.322 32.3932 208.704 32.6745 209.012 33.0391C209.319 33.4036 209.551 33.8411 209.707 34.3516C209.863 34.8568 209.941 35.4167 209.941 36.0312V36.8984H203.316V35.4766H207.91V35.3203C207.9 34.9922 207.837 34.6927 207.723 34.4219C207.608 34.1458 207.431 33.9271 207.191 33.7656C206.952 33.599 206.642 33.5156 206.262 33.5156C205.954 33.5156 205.686 33.5833 205.457 33.7188C205.233 33.849 205.046 34.0365 204.895 34.2812C204.749 34.5208 204.639 34.8073 204.566 35.1406C204.493 35.474 204.457 35.8438 204.457 36.25V36.5625C204.457 36.9167 204.504 37.2448 204.598 37.5469C204.697 37.849 204.84 38.112 205.027 38.3359C205.22 38.5547 205.449 38.7266 205.715 38.8516C205.986 38.9714 206.293 39.0312 206.637 39.0312C207.069 39.0312 207.46 38.9479 207.809 38.7812C208.163 38.6094 208.47 38.3568 208.73 38.0234L209.77 39.1016C209.592 39.362 209.353 39.612 209.051 39.8516C208.754 40.0911 208.395 40.2865 207.973 40.4375C207.551 40.5833 207.064 40.6562 206.512 40.6562ZM213.379 33.7812V40.5H211.316V32.0469H213.262L213.379 33.7812ZM213.074 35.9688H212.441C212.441 35.3802 212.512 34.8385 212.652 34.3438C212.798 33.849 213.012 33.4193 213.293 33.0547C213.574 32.6849 213.921 32.3984 214.332 32.1953C214.749 31.9922 215.23 31.8906 215.777 31.8906C216.158 31.8906 216.507 31.9479 216.824 32.0625C217.142 32.1719 217.415 32.3464 217.645 32.5859C217.879 32.8203 218.059 33.1276 218.184 33.5078C218.309 33.8828 218.371 34.3333 218.371 34.8594V40.5H216.309V35.0703C216.309 34.6745 216.251 34.3646 216.137 34.1406C216.027 33.9167 215.868 33.7604 215.66 33.6719C215.452 33.5781 215.202 33.5312 214.91 33.5312C214.587 33.5312 214.309 33.5964 214.074 33.7266C213.845 33.8516 213.655 34.026 213.504 34.25C213.358 34.474 213.249 34.7318 213.176 35.0234C213.108 35.3151 213.074 35.6302 213.074 35.9688ZM218.215 35.5859L217.363 35.7422C217.368 35.2109 217.441 34.7135 217.582 34.25C217.723 33.7812 217.928 33.3724 218.199 33.0234C218.475 32.6693 218.816 32.3932 219.223 32.1953C219.634 31.9922 220.108 31.8906 220.645 31.8906C221.061 31.8906 221.436 31.9505 221.77 32.0703C222.108 32.1849 222.397 32.3698 222.637 32.625C222.876 32.875 223.059 33.2005 223.184 33.6016C223.314 34.0026 223.379 34.4922 223.379 35.0703V40.5H221.301V35.0625C221.301 34.651 221.243 34.3359 221.129 34.1172C221.02 33.8984 220.861 33.7474 220.652 33.6641C220.444 33.5755 220.199 33.5312 219.918 33.5312C219.632 33.5312 219.382 33.5859 219.168 33.6953C218.96 33.7995 218.783 33.9453 218.637 34.1328C218.496 34.3203 218.389 34.5391 218.316 34.7891C218.249 35.0339 218.215 35.2995 218.215 35.5859ZM227.707 39.5625L229.973 32.0469H232.184L228.793 41.7812C228.715 41.9896 228.613 42.2161 228.488 42.4609C228.368 42.7057 228.207 42.9375 228.004 43.1562C227.801 43.3802 227.546 43.5625 227.238 43.7031C226.936 43.8438 226.569 43.9141 226.137 43.9141C225.949 43.9141 225.783 43.901 225.637 43.875C225.491 43.849 225.337 43.8151 225.176 43.7734V42.2266C225.228 42.2318 225.288 42.2344 225.355 42.2344C225.428 42.2396 225.491 42.2422 225.543 42.2422C225.845 42.2422 226.095 42.2057 226.293 42.1328C226.491 42.0651 226.65 41.9531 226.77 41.7969C226.895 41.6458 226.999 41.4479 227.082 41.2031L227.707 39.5625ZM226.59 32.0469L228.504 38.2734L228.84 40.4531L227.418 40.7109L224.363 32.0469H226.59Z" fill="black"/>
<path d="M106.5 63.7588V66.3994H93.1826L93.043 64.3682L100.876 52.0156H103.555L100.66 56.9287L96.458 63.7588H106.5ZM104.304 52.0156V70.5H100.939V52.0156H104.304ZM108.836 68.8623C108.836 68.3545 109.009 67.9271 109.356 67.5801C109.703 67.2331 110.173 67.0596 110.766 67.0596C111.358 67.0596 111.828 67.2331 112.175 67.5801C112.522 67.9271 112.695 68.3545 112.695 68.8623C112.695 69.3617 112.522 69.7848 112.175 70.1318C111.828 70.4704 111.358 70.6396 110.766 70.6396C110.173 70.6396 109.703 70.4704 109.356 70.1318C109.009 69.7848 108.836 69.3617 108.836 68.8623ZM128.171 65.4473C128.171 66.5983 127.9 67.5716 127.358 68.3672C126.825 69.1543 126.093 69.751 125.162 70.1572C124.24 70.555 123.19 70.7539 122.014 70.7539C120.846 70.7539 119.792 70.555 118.853 70.1572C117.922 69.751 117.181 69.1543 116.631 68.3672C116.089 67.5716 115.818 66.5983 115.818 65.4473C115.818 64.6771 115.971 63.9788 116.275 63.3525C116.589 62.7262 117.02 62.1888 117.57 61.7402C118.12 61.2832 118.772 60.9362 119.525 60.6992C120.279 60.4538 121.1 60.3311 121.988 60.3311C123.173 60.3311 124.231 60.5469 125.162 60.9785C126.102 61.4017 126.838 61.9984 127.371 62.7686C127.904 63.5303 128.171 64.4232 128.171 65.4473ZM124.794 65.2441C124.794 64.6517 124.675 64.1396 124.438 63.708C124.21 63.2679 123.884 62.9294 123.461 62.6924C123.038 62.4554 122.547 62.3369 121.988 62.3369C121.421 62.3369 120.926 62.4554 120.503 62.6924C120.088 62.9294 119.762 63.2679 119.525 63.708C119.297 64.1396 119.183 64.6517 119.183 65.2441C119.183 65.8451 119.297 66.3613 119.525 66.793C119.762 67.2161 120.092 67.542 120.516 67.7705C120.939 67.999 121.438 68.1133 122.014 68.1133C122.589 68.1133 123.084 67.999 123.499 67.7705C123.914 67.542 124.231 67.2161 124.451 66.793C124.68 66.3613 124.794 65.8451 124.794 65.2441ZM127.765 56.8906C127.765 57.8216 127.519 58.651 127.028 59.3789C126.537 60.0983 125.856 60.6611 124.984 61.0674C124.121 61.4736 123.131 61.6768 122.014 61.6768C120.896 61.6768 119.898 61.4736 119.018 61.0674C118.146 60.6611 117.46 60.0983 116.961 59.3789C116.47 58.651 116.225 57.8216 116.225 56.8906C116.225 55.7904 116.474 54.8594 116.974 54.0977C117.473 53.3275 118.154 52.7435 119.018 52.3457C119.889 51.9479 120.88 51.749 121.988 51.749C123.114 51.749 124.113 51.9479 124.984 52.3457C125.856 52.7435 126.537 53.3275 127.028 54.0977C127.519 54.8594 127.765 55.7904 127.765 56.8906ZM124.413 57.0303C124.413 56.5055 124.316 56.0485 124.121 55.6592C123.926 55.2614 123.647 54.9525 123.283 54.7324C122.928 54.5124 122.496 54.4023 121.988 54.4023C121.497 54.4023 121.074 54.5081 120.719 54.7197C120.363 54.9313 120.088 55.236 119.894 55.6338C119.699 56.0231 119.602 56.4886 119.602 57.0303C119.602 57.5635 119.699 58.029 119.894 58.4268C120.088 58.8245 120.363 59.1377 120.719 59.3662C121.083 59.5863 121.514 59.6963 122.014 59.6963C122.513 59.6963 122.94 59.5863 123.296 59.3662C123.651 59.1377 123.926 58.8245 124.121 58.4268C124.316 58.029 124.413 57.5635 124.413 57.0303Z" fill="black"/>
<path d="M143.582 56.5127V66.5H141.935V58.4678L139.494 59.2949V57.9346L143.384 56.5127H143.582ZM153.528 60.6895V62.3164C153.528 63.0957 153.451 63.7611 153.296 64.3125C153.146 64.8594 152.927 65.3037 152.64 65.6455C152.353 65.9873 152.008 66.238 151.607 66.3975C151.211 66.557 150.767 66.6367 150.274 66.6367C149.882 66.6367 149.518 66.5866 149.181 66.4863C148.848 66.3861 148.547 66.2288 148.278 66.0146C148.009 65.8005 147.779 65.5247 147.588 65.1875C147.401 64.8457 147.255 64.4378 147.15 63.9639C147.05 63.4899 147 62.9408 147 62.3164V60.6895C147 59.9056 147.077 59.2448 147.232 58.707C147.387 58.1647 147.608 57.7249 147.896 57.3877C148.183 57.0459 148.524 56.7975 148.921 56.6426C149.322 56.4876 149.769 56.4102 150.261 56.4102C150.657 56.4102 151.022 56.4603 151.354 56.5605C151.692 56.6562 151.993 56.8089 152.257 57.0186C152.526 57.2282 152.754 57.5016 152.94 57.8389C153.132 58.1715 153.278 58.5749 153.378 59.0488C153.478 59.5182 153.528 60.0651 153.528 60.6895ZM151.881 62.5488V60.4434C151.881 60.0469 151.858 59.6982 151.812 59.3975C151.767 59.0921 151.699 58.8346 151.607 58.625C151.521 58.4108 151.411 58.2376 151.279 58.1055C151.147 57.9688 150.997 57.8708 150.828 57.8115C150.66 57.7477 150.47 57.7158 150.261 57.7158C150.006 57.7158 149.778 57.766 149.577 57.8662C149.377 57.9619 149.208 58.1169 149.071 58.3311C148.935 58.5452 148.83 58.8278 148.757 59.1787C148.688 59.5251 148.654 59.9466 148.654 60.4434V62.5488C148.654 62.9499 148.677 63.3031 148.723 63.6084C148.768 63.9137 148.837 64.1758 148.928 64.3945C149.019 64.6087 149.128 64.7865 149.256 64.9277C149.388 65.0645 149.538 65.1647 149.707 65.2285C149.88 65.2923 150.069 65.3242 150.274 65.3242C150.534 65.3242 150.764 65.2741 150.965 65.1738C151.165 65.0736 151.334 64.9141 151.471 64.6953C151.607 64.472 151.71 64.1826 151.778 63.8271C151.847 63.4717 151.881 63.0456 151.881 62.5488ZM161.485 60.6895V62.3164C161.485 63.0957 161.408 63.7611 161.253 64.3125C161.103 64.8594 160.884 65.3037 160.597 65.6455C160.31 65.9873 159.965 66.238 159.564 66.3975C159.168 66.557 158.724 66.6367 158.231 66.6367C157.84 66.6367 157.475 66.5866 157.138 66.4863C156.805 66.3861 156.504 66.2288 156.235 66.0146C155.966 65.8005 155.736 65.5247 155.545 65.1875C155.358 64.8457 155.212 64.4378 155.107 63.9639C155.007 63.4899 154.957 62.9408 154.957 62.3164V60.6895C154.957 59.9056 155.035 59.2448 155.189 58.707C155.344 58.1647 155.565 57.7249 155.853 57.3877C156.14 57.0459 156.481 56.7975 156.878 56.6426C157.279 56.4876 157.726 56.4102 158.218 56.4102C158.614 56.4102 158.979 56.4603 159.312 56.5605C159.649 56.6562 159.95 56.8089 160.214 57.0186C160.483 57.2282 160.711 57.5016 160.897 57.8389C161.089 58.1715 161.235 58.5749 161.335 59.0488C161.435 59.5182 161.485 60.0651 161.485 60.6895ZM159.838 62.5488V60.4434C159.838 60.0469 159.815 59.6982 159.77 59.3975C159.724 59.0921 159.656 58.8346 159.564 58.625C159.478 58.4108 159.368 58.2376 159.236 58.1055C159.104 57.9688 158.954 57.8708 158.785 57.8115C158.617 57.7477 158.427 57.7158 158.218 57.7158C157.963 57.7158 157.735 57.766 157.534 57.8662C157.334 57.9619 157.165 58.1169 157.028 58.3311C156.892 58.5452 156.787 58.8278 156.714 59.1787C156.646 59.5251 156.611 59.9466 156.611 60.4434V62.5488C156.611 62.9499 156.634 63.3031 156.68 63.6084C156.725 63.9137 156.794 64.1758 156.885 64.3945C156.976 64.6087 157.085 64.7865 157.213 64.9277C157.345 65.0645 157.495 65.1647 157.664 65.2285C157.837 65.2923 158.026 65.3242 158.231 65.3242C158.491 65.3242 158.721 65.2741 158.922 65.1738C159.122 65.0736 159.291 64.9141 159.428 64.6953C159.564 64.472 159.667 64.1826 159.735 63.8271C159.804 63.4717 159.838 63.0456 159.838 62.5488ZM164.596 64.9141L164.589 66.0898C164.589 66.5547 164.473 67.0332 164.24 67.5254C164.008 68.0176 163.7 68.4232 163.317 68.7422L162.436 68.2295C162.563 68.0244 162.679 67.8171 162.784 67.6074C162.889 67.3978 162.973 67.1745 163.037 66.9375C163.101 66.7005 163.133 66.4385 163.133 66.1514V64.9141H164.596ZM172.573 60.6895V62.3164C172.573 63.0957 172.496 63.7611 172.341 64.3125C172.19 64.8594 171.972 65.3037 171.685 65.6455C171.397 65.9873 171.053 66.238 170.652 66.3975C170.256 66.557 169.812 66.6367 169.319 66.6367C168.927 66.6367 168.563 66.5866 168.226 66.4863C167.893 66.3861 167.592 66.2288 167.323 66.0146C167.054 65.8005 166.824 65.5247 166.633 65.1875C166.446 64.8457 166.3 64.4378 166.195 63.9639C166.095 63.4899 166.045 62.9408 166.045 62.3164V60.6895C166.045 59.9056 166.122 59.2448 166.277 58.707C166.432 58.1647 166.653 57.7249 166.94 57.3877C167.228 57.0459 167.569 56.7975 167.966 56.6426C168.367 56.4876 168.813 56.4102 169.306 56.4102C169.702 56.4102 170.067 56.4603 170.399 56.5605C170.737 56.6562 171.037 56.8089 171.302 57.0186C171.571 57.2282 171.799 57.5016 171.985 57.8389C172.177 58.1715 172.323 58.5749 172.423 59.0488C172.523 59.5182 172.573 60.0651 172.573 60.6895ZM170.926 62.5488V60.4434C170.926 60.0469 170.903 59.6982 170.857 59.3975C170.812 59.0921 170.743 58.8346 170.652 58.625C170.566 58.4108 170.456 58.2376 170.324 58.1055C170.192 57.9688 170.042 57.8708 169.873 57.8115C169.704 57.7477 169.515 57.7158 169.306 57.7158C169.05 57.7158 168.823 57.766 168.622 57.8662C168.422 57.9619 168.253 58.1169 168.116 58.3311C167.979 58.5452 167.875 58.8278 167.802 59.1787C167.733 59.5251 167.699 59.9466 167.699 60.4434V62.5488C167.699 62.9499 167.722 63.3031 167.768 63.6084C167.813 63.9137 167.882 64.1758 167.973 64.3945C168.064 64.6087 168.173 64.7865 168.301 64.9277C168.433 65.0645 168.583 65.1647 168.752 65.2285C168.925 65.2923 169.114 65.3242 169.319 65.3242C169.579 65.3242 169.809 65.2741 170.01 65.1738C170.21 65.0736 170.379 64.9141 170.516 64.6953C170.652 64.472 170.755 64.1826 170.823 63.8271C170.892 63.4717 170.926 63.0456 170.926 62.5488ZM180.53 60.6895V62.3164C180.53 63.0957 180.453 63.7611 180.298 64.3125C180.147 64.8594 179.929 65.3037 179.642 65.6455C179.354 65.9873 179.01 66.238 178.609 66.3975C178.213 66.557 177.769 66.6367 177.276 66.6367C176.884 66.6367 176.52 66.5866 176.183 66.4863C175.85 66.3861 175.549 66.2288 175.28 66.0146C175.011 65.8005 174.781 65.5247 174.59 65.1875C174.403 64.8457 174.257 64.4378 174.152 63.9639C174.052 63.4899 174.002 62.9408 174.002 62.3164V60.6895C174.002 59.9056 174.079 59.2448 174.234 58.707C174.389 58.1647 174.61 57.7249 174.897 57.3877C175.185 57.0459 175.526 56.7975 175.923 56.6426C176.324 56.4876 176.771 56.4102 177.263 56.4102C177.659 56.4102 178.024 56.4603 178.356 56.5605C178.694 56.6562 178.994 56.8089 179.259 57.0186C179.528 57.2282 179.756 57.5016 179.942 57.8389C180.134 58.1715 180.28 58.5749 180.38 59.0488C180.48 59.5182 180.53 60.0651 180.53 60.6895ZM178.883 62.5488V60.4434C178.883 60.0469 178.86 59.6982 178.814 59.3975C178.769 59.0921 178.701 58.8346 178.609 58.625C178.523 58.4108 178.413 58.2376 178.281 58.1055C178.149 57.9688 177.999 57.8708 177.83 57.8115C177.661 57.7477 177.472 57.7158 177.263 57.7158C177.007 57.7158 176.78 57.766 176.579 57.8662C176.379 57.9619 176.21 58.1169 176.073 58.3311C175.937 58.5452 175.832 58.8278 175.759 59.1787C175.69 59.5251 175.656 59.9466 175.656 60.4434V62.5488C175.656 62.9499 175.679 63.3031 175.725 63.6084C175.77 63.9137 175.839 64.1758 175.93 64.3945C176.021 64.6087 176.13 64.7865 176.258 64.9277C176.39 65.0645 176.54 65.1647 176.709 65.2285C176.882 65.2923 177.071 65.3242 177.276 65.3242C177.536 65.3242 177.766 65.2741 177.967 65.1738C178.167 65.0736 178.336 64.9141 178.473 64.6953C178.609 64.472 178.712 64.1826 178.78 63.8271C178.849 63.4717 178.883 63.0456 178.883 62.5488ZM188.487 60.6895V62.3164C188.487 63.0957 188.41 63.7611 188.255 64.3125C188.104 64.8594 187.886 65.3037 187.599 65.6455C187.312 65.9873 186.967 66.238 186.566 66.3975C186.17 66.557 185.726 66.6367 185.233 66.6367C184.841 66.6367 184.477 66.5866 184.14 66.4863C183.807 66.3861 183.506 66.2288 183.237 66.0146C182.968 65.8005 182.738 65.5247 182.547 65.1875C182.36 64.8457 182.214 64.4378 182.109 63.9639C182.009 63.4899 181.959 62.9408 181.959 62.3164V60.6895C181.959 59.9056 182.036 59.2448 182.191 58.707C182.346 58.1647 182.567 57.7249 182.854 57.3877C183.142 57.0459 183.483 56.7975 183.88 56.6426C184.281 56.4876 184.728 56.4102 185.22 56.4102C185.616 56.4102 185.981 56.4603 186.313 56.5605C186.651 56.6562 186.951 56.8089 187.216 57.0186C187.485 57.2282 187.713 57.5016 187.899 57.8389C188.091 58.1715 188.237 58.5749 188.337 59.0488C188.437 59.5182 188.487 60.0651 188.487 60.6895ZM186.84 62.5488V60.4434C186.84 60.0469 186.817 59.6982 186.771 59.3975C186.726 59.0921 186.658 58.8346 186.566 58.625C186.48 58.4108 186.37 58.2376 186.238 58.1055C186.106 57.9688 185.956 57.8708 185.787 57.8115C185.618 57.7477 185.429 57.7158 185.22 57.7158C184.965 57.7158 184.737 57.766 184.536 57.8662C184.336 57.9619 184.167 58.1169 184.03 58.3311C183.894 58.5452 183.789 58.8278 183.716 59.1787C183.647 59.5251 183.613 59.9466 183.613 60.4434V62.5488C183.613 62.9499 183.636 63.3031 183.682 63.6084C183.727 63.9137 183.796 64.1758 183.887 64.3945C183.978 64.6087 184.087 64.7865 184.215 64.9277C184.347 65.0645 184.497 65.1647 184.666 65.2285C184.839 65.2923 185.028 65.3242 185.233 65.3242C185.493 65.3242 185.723 65.2741 185.924 65.1738C186.124 65.0736 186.293 64.9141 186.43 64.6953C186.566 64.472 186.669 64.1826 186.737 63.8271C186.806 63.4717 186.84 63.0456 186.84 62.5488ZM196.479 61.0449V62.5283H189.656V61.0449H196.479ZM193.867 58.2559V65.502H192.274V58.2559H193.867ZM203.978 64.2646L205.96 56.5469H206.999L206.883 58.5361L204.764 66.5H203.684L203.978 64.2646ZM202.494 56.5469L204.101 64.2031L204.244 66.5H203.096L200.792 56.5469H202.494ZM209.248 64.1826L210.834 56.5469H212.543L210.239 66.5H209.091L209.248 64.1826ZM207.402 56.5469L209.364 64.2852L209.651 66.5H208.571L206.486 58.5361L206.377 56.5469H207.402ZM215.414 59.1035V66.5H213.76V59.1035H215.414ZM213.65 57.1621C213.65 56.9115 213.732 56.7041 213.896 56.54C214.065 56.3714 214.298 56.2871 214.594 56.2871C214.885 56.2871 215.116 56.3714 215.284 56.54C215.453 56.7041 215.537 56.9115 215.537 57.1621C215.537 57.4082 215.453 57.6133 215.284 57.7773C215.116 57.9414 214.885 58.0234 214.594 58.0234C214.298 58.0234 214.065 57.9414 213.896 57.7773C213.732 57.6133 213.65 57.4082 213.65 57.1621ZM218.853 60.6826V66.5H217.205V59.1035H218.757L218.853 60.6826ZM218.559 62.5283L218.025 62.5215C218.03 61.9974 218.103 61.5166 218.244 61.0791C218.39 60.6416 218.59 60.2656 218.846 59.9512C219.105 59.6367 219.415 59.3952 219.775 59.2266C220.135 59.0534 220.536 58.9668 220.979 58.9668C221.334 58.9668 221.655 59.0169 221.942 59.1172C222.234 59.2129 222.482 59.3701 222.688 59.5889C222.897 59.8076 223.057 60.0924 223.166 60.4434C223.275 60.7897 223.33 61.2158 223.33 61.7217V66.5H221.676V61.7148C221.676 61.3594 221.623 61.0791 221.519 60.874C221.418 60.6644 221.27 60.5163 221.074 60.4297C220.883 60.3385 220.644 60.293 220.356 60.293C220.074 60.293 219.821 60.3522 219.598 60.4707C219.374 60.5892 219.185 60.751 219.03 60.9561C218.88 61.1611 218.764 61.3981 218.682 61.667C218.6 61.9359 218.559 62.223 218.559 62.5283ZM226.646 60.6826V66.5H224.998V59.1035H226.55L226.646 60.6826ZM226.352 62.5283L225.818 62.5215C225.823 61.9974 225.896 61.5166 226.037 61.0791C226.183 60.6416 226.383 60.2656 226.639 59.9512C226.898 59.6367 227.208 59.3952 227.568 59.2266C227.928 59.0534 228.329 58.9668 228.771 58.9668C229.127 58.9668 229.448 59.0169 229.735 59.1172C230.027 59.2129 230.275 59.3701 230.48 59.5889C230.69 59.8076 230.85 60.0924 230.959 60.4434C231.068 60.7897 231.123 61.2158 231.123 61.7217V66.5H229.469V61.7148C229.469 61.3594 229.416 61.0791 229.312 60.874C229.211 60.6644 229.063 60.5163 228.867 60.4297C228.676 60.3385 228.437 60.293 228.149 60.293C227.867 60.293 227.614 60.3522 227.391 60.4707C227.167 60.5892 226.978 60.751 226.823 60.9561C226.673 61.1611 226.557 61.3981 226.475 61.667C226.393 61.9359 226.352 62.223 226.352 62.5283ZM236.065 66.6367C235.519 66.6367 235.024 66.5479 234.582 66.3701C234.145 66.1878 233.771 65.9349 233.461 65.6113C233.156 65.2878 232.921 64.9072 232.757 64.4697C232.593 64.0322 232.511 63.5605 232.511 63.0547V62.7812C232.511 62.2025 232.595 61.6784 232.764 61.209C232.932 60.7396 233.167 60.3385 233.468 60.0059C233.769 59.6686 234.124 59.4111 234.534 59.2334C234.944 59.0557 235.389 58.9668 235.867 58.9668C236.396 58.9668 236.858 59.0557 237.255 59.2334C237.651 59.4111 237.979 59.6618 238.239 59.9854C238.504 60.3044 238.7 60.6849 238.827 61.127C238.959 61.569 239.025 62.0566 239.025 62.5898V63.2939H233.311V62.1113H237.398V61.9814C237.389 61.6852 237.33 61.4072 237.221 61.1475C237.116 60.8877 236.954 60.6781 236.735 60.5186C236.517 60.359 236.225 60.2793 235.86 60.2793C235.587 60.2793 235.343 60.3385 235.129 60.457C234.919 60.571 234.744 60.7373 234.603 60.9561C234.461 61.1748 234.352 61.4391 234.274 61.749C234.201 62.0544 234.165 62.3984 234.165 62.7812V63.0547C234.165 63.3783 234.208 63.679 234.295 63.957C234.386 64.2305 234.518 64.4697 234.691 64.6748C234.865 64.8799 235.074 65.0417 235.32 65.1602C235.566 65.2741 235.847 65.3311 236.161 65.3311C236.558 65.3311 236.911 65.2513 237.221 65.0918C237.531 64.9323 237.799 64.7067 238.027 64.415L238.896 65.2559C238.736 65.4883 238.529 65.7116 238.273 65.9258C238.018 66.1354 237.706 66.3063 237.337 66.4385C236.972 66.5706 236.549 66.6367 236.065 66.6367ZM241.965 60.5117V66.5H240.317V59.1035H241.89L241.965 60.5117ZM244.228 59.0557L244.214 60.5869C244.114 60.5687 244.004 60.555 243.886 60.5459C243.772 60.5368 243.658 60.5322 243.544 60.5322C243.261 60.5322 243.013 60.5732 242.799 60.6553C242.585 60.7327 242.405 60.8467 242.259 60.9971C242.118 61.1429 242.008 61.3206 241.931 61.5303C241.853 61.7399 241.808 61.9746 241.794 62.2344L241.418 62.2617C241.418 61.7969 241.464 61.3662 241.555 60.9697C241.646 60.5732 241.783 60.2246 241.965 59.9238C242.152 59.623 242.384 59.3883 242.662 59.2197C242.945 59.0511 243.271 58.9668 243.64 58.9668C243.74 58.9668 243.847 58.9759 243.961 58.9941C244.079 59.0124 244.168 59.0329 244.228 59.0557ZM249.409 64.4971C249.409 64.333 249.368 64.1849 249.286 64.0527C249.204 63.916 249.047 63.793 248.814 63.6836C248.587 63.5742 248.249 63.474 247.803 63.3828C247.411 63.2962 247.051 63.1937 246.723 63.0752C246.399 62.9521 246.121 62.804 245.889 62.6309C245.656 62.4577 245.476 62.2526 245.349 62.0156C245.221 61.7786 245.157 61.5052 245.157 61.1953C245.157 60.8945 245.223 60.6097 245.355 60.3408C245.488 60.0719 245.677 59.835 245.923 59.6299C246.169 59.4248 246.467 59.263 246.818 59.1445C247.174 59.026 247.57 58.9668 248.008 58.9668C248.628 58.9668 249.159 59.0716 249.601 59.2812C250.047 59.4863 250.389 59.7666 250.626 60.1221C250.863 60.473 250.981 60.8695 250.981 61.3115H249.334C249.334 61.1156 249.284 60.9333 249.184 60.7646C249.088 60.5915 248.942 60.4525 248.746 60.3477C248.55 60.2383 248.304 60.1836 248.008 60.1836C247.725 60.1836 247.491 60.2292 247.304 60.3203C247.121 60.4069 246.985 60.5208 246.894 60.6621C246.807 60.8034 246.764 60.9583 246.764 61.127C246.764 61.25 246.786 61.3617 246.832 61.4619C246.882 61.5576 246.964 61.6465 247.078 61.7285C247.192 61.806 247.347 61.8789 247.543 61.9473C247.743 62.0156 247.994 62.0817 248.295 62.1455C248.86 62.264 249.345 62.4167 249.751 62.6035C250.161 62.7858 250.476 63.0228 250.694 63.3145C250.913 63.6016 251.022 63.9661 251.022 64.4082C251.022 64.7363 250.952 65.0371 250.811 65.3105C250.674 65.5794 250.473 65.8141 250.209 66.0146C249.945 66.2106 249.628 66.3633 249.259 66.4727C248.894 66.582 248.484 66.6367 248.028 66.6367C247.358 66.6367 246.791 66.5182 246.326 66.2812C245.861 66.0397 245.508 65.7321 245.267 65.3584C245.03 64.9801 244.911 64.5882 244.911 64.1826H246.504C246.522 64.488 246.606 64.7318 246.757 64.9141C246.912 65.0918 247.103 65.2217 247.331 65.3037C247.563 65.3812 247.803 65.4199 248.049 65.4199C248.345 65.4199 248.593 65.3812 248.794 65.3037C248.994 65.2217 249.147 65.1123 249.252 64.9756C249.357 64.8343 249.409 64.6748 249.409 64.4971Z" fill="black"/>
</svg>
